<?xml version="1.0" ?><svg enable-background="new 0 0 24 24" id="Layer_1" version="1.1" viewBox="0 0 24 24" xml:space="preserve" xmlns="http://www.w3.org/2000/svg" xmlns:xlink="http://www.w3.org/1999/xlink"><g><circle cx="10.5" cy="6.5" fill="none" r="3" stroke="#303C42" stroke-linecap="round" stroke-linejoin="round" stroke-miterlimit="10"/><circle cx="10.5" cy="6.5" fill="none" r="1" stroke="#303C42" stroke-linecap="round" stroke-linejoin="round" stroke-miterlimit="10"/><g><path d="M20.5,8.5V12h-2    v3.5h4v3h-3v2h1.2265015c-2.0426025,1.8578491-4.7478027,3-7.7265015,3C6.6487427,23.5,1.5,18.3512573,1.5,12    C1.5,5.6486816,6.6487427,0.5,13,0.5c2.9786987,0,5.68396,1.1421509,7.7265625,3H19.5v3h3v2H20.5z" fill="none" stroke="#303C42" stroke-linecap="round" stroke-linejoin="round" stroke-miterlimit="10"/></g><line fill="none" stroke="#303C42" stroke-linecap="round" stroke-linejoin="round" stroke-miterlimit="10" x1="1.5" x2="18.5" y1="12" y2="12"/><line fill="none" stroke="#303C42" stroke-linecap="round" stroke-linejoin="round" stroke-miterlimit="10" x1="1.7726852" x2="8.5" y1="14.5" y2="14.5"/><line fill="none" stroke="#303C42" stroke-linecap="round" stroke-linejoin="round" stroke-miterlimit="10" x1="2.8982074" x2="6.5" y1="17.5" y2="17.5"/><line fill="none" stroke="#303C42" stroke-linecap="round" stroke-linejoin="round" stroke-miterlimit="10" x1="2.8981583" x2="5.5" y1="6.5" y2="6.5"/><line fill="none" stroke="#303C42" stroke-linecap="round" stroke-linejoin="round" stroke-miterlimit="10" x1="18.5" x2="15.5" y1="15.5" y2="15.5"/><line fill="none" stroke="#303C42" stroke-linecap="round" stroke-linejoin="round" stroke-miterlimit="10" x1="19.5" x2="17.5" y1="6.5" y2="6.5"/></g><g/><g/><g/><g/><g/><g/><g/><g/><g/><g/><g/><g/><g/><g/><g/></svg>