<svg width="24" height="24" xmlns="http://www.w3.org/2000/svg">

 <g>
  <title>background</title>
  <rect fill="none" id="canvas_background" height="402" width="582" y="-1" x="-1"/>
 </g>
 <g>
  <title>Layer 1</title>
  <circle id="svg_2" r="1.5" fill="#a71413" cy="6.5" cx="10.5"/>
  <path id="svg_3" fill="#b01614" d="m20.5,11.5c0.27637,0 0.5,-0.22363 0.5,-0.5l0,-2l1.5,0c0.27637,0 0.5,-0.22363 0.5,-0.5l0,-2c0,-0.27637 -0.22363,-0.5 -0.5,-0.5l-2.5,0l0,-2l0.72656,0c0.20655,0 0.3916,-0.12695 0.46631,-0.31982c0.07471,-0.19239 0.02295,-0.41114 -0.12988,-0.54981c-2.21924,-2.01855 -5.08252,-3.13037 -8.06299,-3.13037c-6.6167,0 -12,5.3833 -12,12s5.3833,12 12,12c2.98047,0 5.84375,-1.11182 8.06299,-3.13037c0.15283,-0.13867 0.20459,-0.35742 0.12988,-0.54981c-0.07471,-0.19287 -0.25976,-0.31982 -0.46631,-0.31982l-0.72656,0l0,-1l2.5,0c0.27637,0 0.5,-0.22363 0.5,-0.5l0,-3c0,-0.27637 -0.22363,-0.5 -0.5,-0.5l-3.5,0l0,-2.5l-16.97467,0c-0.00757,-0.16693 -0.02533,-0.33124 -0.02533,-0.5s0.01776,-0.33307 0.02533,-0.5l18.47467,0zm-4.5,-5.5l2,0c0.27637,0 0.5,0.22363 0.5,0.5s-0.22363,0.5 -0.5,0.5l-2,0c-0.27637,0 -0.5,-0.22363 -0.5,-0.5s0.22363,-0.5 0.5,-0.5zm-5.5,-3c1.92969,0 3.5,1.57031 3.5,3.5s-1.57031,3.5 -3.5,3.5s-3.5,-1.57031 -3.5,-3.5s1.57031,-3.5 3.5,-3.5zm-6,3l1,0c0.27637,0 0.5,0.22363 0.5,0.5s-0.22363,0.5 -0.5,0.5l-1,0c-0.27637,0 -0.5,-0.22363 -0.5,-0.5s0.22363,-0.5 0.5,-0.5zm11,9l1.5,0c0.27637,0 0.5,0.22363 0.5,0.5s-0.22363,0.5 -0.5,0.5l-1.5,0c-0.27637,0 -0.5,-0.22363 -0.5,-0.5s0.22363,-0.5 0.5,-0.5zm-9,3l-2,0c-0.27637,0 -0.5,-0.22363 -0.5,-0.5s0.22363,-0.5 0.5,-0.5l2,0c0.27637,0 0.5,0.22363 0.5,0.5s-0.22363,0.5 -0.5,0.5zm-2.5,-4l4.5,0c0.27637,0 0.5,0.22363 0.5,0.5s-0.22363,0.5 -0.5,0.5l-4.5,0c-0.27637,0 -0.5,-0.22363 -0.5,-0.5s0.22363,-0.5 0.5,-0.5z"/>
 </g>
</svg>